# xmcd
# 
# Track frame offsets:
#     150
#     7396
#     29124
#     54508
#     72111
#     100330
#     116260
#     140160
#     157614
#     187499
#     226880
#     243098
# 
# Disc length: 3562
# 
# Revision: 4
# Processed by: cddbd v1.5.2PL0 Copyright (c) Steve Scherf et al.
# Submitted via: fre:ac v1.0.31
# 
DISCID=a50de80c
DTITLE=Cowboy Junkies - Trinity revisited
DYEAR=2007
DGENRE=Rock
TTITLE0=Mining for gold
TTITLE1=Misguided angel
TTITLE2=Blue moon revisited (Song for Elvis)
TTITLE3=I don't get it
TTITLE4=I'm so lonesome I could cry
TTITLE5=To love is to bury
TTITLE6=200 more miles
TTITLE7=Dreaming my dreams with you
TTITLE8=Working on a building
TTITLE9=Sweet Jane
TTITLE10=Postcard blues
TTITLE11=Walking after midnight
EXTD=
EXTT0=
EXTT1=
EXTT2=
EXTT3=
EXTT4=
EXTT5=
EXTT6=
EXTT7=
EXTT8=
EXTT9=
EXTT10=
EXTT11=
PLAYORDER=
